<?xml version="1.0" encoding="utf-8"?>
<!-- Generator: Adobe Illustrator 26.3.1, SVG Export Plug-In . SVG Version: 6.00 Build 0)  -->
<svg version="1.1" id="Layer_1" xmlns="http://www.w3.org/2000/svg" xmlns:xlink="http://www.w3.org/1999/xlink" x="0px" y="0px"
	 viewBox="0 0 20 20" style="enable-background:new 0 0 20 20;" xml:space="preserve">
<style type="text/css">
	.st0{fill:#1D4178;}
	.st1{fill:#41A9DF;}
	.st2{fill:#FFFFFF;}
</style>
<rect class="st0" width="20" height="20"/>
<g>
	<g>
		<path class="st1" d="M17.3,11.81v3.64c0,0.08,0,0.17-0.02,0.25c-0.06,0.61-0.33,1.16-0.74,1.58c-0.47,0.47-1.11,0.76-1.82,0.76
			v-6.89H13.8l-1.78,5.77l-0.17,0.56H8.16l-0.17-0.56l-1.78-5.77H5.29v6.89c-1.34,0-2.45-1.02-2.58-2.33
			C2.7,15.61,2.7,15.53,2.7,15.44v-3.63c0-0.02,0-0.05,0-0.07c0-0.04,0-0.08,0-0.11c0-0.1,0.01-0.2,0.02-0.31
			c0-0.02,0-0.04,0.01-0.06c0-0.02,0-0.04,0.01-0.06c0.01-0.1,0.03-0.2,0.05-0.3c0-0.02,0.01-0.04,0.01-0.06
			c0.01-0.04,0.02-0.08,0.02-0.12c0-0.02,0.01-0.04,0.01-0.06c0,0,0,0,0,0c0-0.02,0.01-0.04,0.01-0.06c0-0.02,0.01-0.04,0.01-0.06
			C3.4,8.5,5.21,6.97,7.4,6.85c0,0,0,0,0,0.01c0.01,0,0.01,0,0.02,0c0.55,0.88,1.4,1.47,2.38,1.54c0.02,0,0.03,0,0.05,0
			c0.01,0,0.01,0,0.02,0c0.01,0,0.03,0,0.04,0c0.01,0,0.02,0,0.03,0c0.02,0,0.04,0,0.06,0h0c0.02,0,0.05,0,0.07,0
			c0.05,0,0.1,0,0.15-0.01c0.03,0,0.05,0,0.08-0.01c0.02,0,0.05-0.01,0.07-0.01c0,0,0,0,0.01,0c0.01,0,0.03,0,0.04-0.01
			c0.01,0,0.01,0,0.02,0c0.02,0,0.03-0.01,0.05-0.01c0.86-0.15,1.6-0.71,2.09-1.5c0.01,0,0.01,0,0.02,0c0,0,0,0,0-0.01
			c2.18,0.12,3.99,1.65,4.53,3.7c0.01,0.02,0.01,0.04,0.01,0.06c0,0.02,0.01,0.04,0.01,0.06c0,0.02,0.01,0.04,0.01,0.05
			c0,0,0,0.01,0,0.01c0,0.02,0.01,0.04,0.01,0.05c0,0.02,0.01,0.04,0.01,0.06c0,0,0,0,0,0.01c0,0.02,0.01,0.04,0.01,0.06
			c0,0.01,0.01,0.03,0.01,0.04c0,0.01,0,0.02,0.01,0.04c0,0.01,0,0.03,0.01,0.04c0,0.02,0.01,0.04,0.01,0.06
			c0,0.02,0.01,0.04,0.01,0.06c0,0.02,0.01,0.04,0.01,0.06c0.01,0.04,0.01,0.08,0.01,0.12c0.01,0.1,0.02,0.2,0.02,0.31
			c0,0.04,0,0.07,0,0.11C17.3,11.76,17.3,11.79,17.3,11.81z"/>
		<path class="st2" d="M17.3,11.81v3.64c0,0.08,0,0.17-0.02,0.25h-2.56v-4.56H13.8l-1.67,5.77H7.88l-1.67-5.77H5.29v4.56H2.72
			C2.7,15.61,2.7,15.53,2.7,15.44v-3.63c0-0.02,0-0.05,0-0.07c0-0.04,0-0.08,0-0.11c0-0.1,0.01-0.2,0.02-0.31
			c0-0.02,0-0.04,0.01-0.06c0-0.02,0-0.04,0.01-0.06c0.01-0.1,0.03-0.2,0.05-0.3c0-0.02,0.01-0.04,0.01-0.06
			c0.01-0.04,0.02-0.08,0.02-0.12c0-0.02,0.01-0.04,0.01-0.06c0,0,0,0,0,0c0-0.02,0.01-0.04,0.01-0.06c0-0.02,0.01-0.04,0.01-0.06
			C3.4,8.5,5.22,6.97,7.4,6.86c0.01,0,0.01,0,0.02,0c0.55,0.88,1.4,1.47,2.38,1.54c0.02,0,0.03,0,0.05,0c0.01,0,0.01,0,0.02,0
			c0.01,0,0.03,0,0.04,0c0.01,0,0.02,0,0.03,0c0.02,0,0.04,0,0.06,0h0c0.02,0,0.05,0,0.07,0c0.05,0,0.1,0,0.15-0.01
			c0.03,0,0.05,0,0.08-0.01c0.02,0,0.05-0.01,0.07-0.01c0,0,0,0,0.01,0c0.01,0,0.03,0,0.04-0.01c0.01,0,0.01,0,0.02,0
			c0.02,0,0.03-0.01,0.05-0.01c0.86-0.15,1.6-0.71,2.09-1.5c0.01,0,0.01,0,0.02,0c2.18,0.12,4,1.65,4.53,3.69
			c0.01,0.02,0.01,0.04,0.01,0.06c0,0.02,0.01,0.04,0.01,0.06c0,0.02,0.01,0.04,0.01,0.05c0,0,0,0.01,0,0.01
			c0,0.02,0.01,0.04,0.01,0.05c0,0.02,0.01,0.04,0.01,0.06c0,0,0,0,0,0.01c0,0.02,0.01,0.04,0.01,0.06c0,0.01,0.01,0.03,0.01,0.04
			c0,0.01,0,0.02,0.01,0.04c0,0.01,0,0.03,0.01,0.04c0,0.02,0.01,0.04,0.01,0.06c0,0.02,0.01,0.04,0.01,0.06
			c0,0.02,0.01,0.04,0.01,0.06c0.01,0.04,0.01,0.08,0.01,0.12c0.01,0.1,0.02,0.2,0.02,0.31c0,0.04,0,0.08,0,0.11
			C17.3,11.76,17.3,11.79,17.3,11.81z"/>
		<path class="st1" d="M11.59,14.7L10,16.3l-1.59-1.6l0.98-6.34l0-0.03c0.13,0.03,0.27,0.05,0.41,0.06c0.02,0,0.03,0,0.05,0
			c0.01,0,0.01,0,0.02,0c0.01,0,0.03,0,0.04,0c0.01,0,0.02,0,0.03,0c0.02,0,0.04,0,0.06,0h0c0.02,0,0.05,0,0.07,0
			c0.05,0,0.1,0,0.15-0.01c0.03,0,0.05,0,0.08-0.01c0.02,0,0.05-0.01,0.07-0.01c0,0,0,0,0.01,0c0.01,0,0.03,0,0.04-0.01
			c0.01,0,0.01,0,0.02,0c0.02,0,0.03,0,0.05-0.01c0.04-0.01,0.07-0.01,0.11-0.02l0,0.03L11.59,14.7z"/>
	</g>
	<circle class="st1" cx="10" cy="4.8" r="2.84"/>
</g>
</svg>
